
<?xml version="1.0" encoding="utf-8"?>
<!-- Generator: Adobe Illustrator 22.0.1, SVG Export Plug-In . SVG Version: 6.00 Build 0)  -->
<svg version="1.1" id="Layer_1" xmlns="http://www.w3.org/2000/svg" xmlns:xlink="http://www.w3.org/1999/xlink" x="0px" y="0px"
	 viewBox="0 0 608 176" style="enable-background:new 0 0 608 176;" xml:space="preserve">
<style type="text/css">
	.st0{fill:url(#SVGID_1_);}
	.st1{fill:url(#SVGID_2_);}
	.st2{fill:url(#SVGID_3_);}
	.st3{fill:url(#SVGID_4_);}
	.st4{fill:url(#SVGID_5_);}
	.st5{fill:url(#SVGID_6_);}
	.st6{fill:url(#SVGID_7_);}
	.st7{fill:url(#SVGID_8_);}
	.st8{fill:url(#SVGID_9_);}
	.st9{fill:url(#SVGID_10_);}
	.st10{fill:url(#SVGID_11_);}
</style>
<g id="Layer_1_1_">
	<g id="Слой_4">
	</g>
	<g>
		
			<linearGradient id="SVGID_1_" gradientUnits="userSpaceOnUse" x1="567.3769" y1="123.6304" x2="567.3769" y2="21.3083" gradientTransform="matrix(1 0 0 -1 0 175.8898)">
			<stop  offset="0" style="stop-color:#FF7500"/>
			<stop  offset="1" style="stop-color:#F8E509"/>
		</linearGradient>
		<path class="st0" d="M533.8,131.3c5.4-1.2,10.4-2.4,15.5-3.4c1-0.2,2.7,0.7,3.5,1.6c6.4,7.5,12.4,9.7,19.9,6.7
			c6.9-2.8,11-10.7,10.3-20.4c-9,7.1-18.8,8.1-28.9,4.3c-6.8-2.5-12.5-6.8-16.4-13.1c-8.7-13.7-7.2-33,3.6-44.8s24.7-13.3,42.6-4.1
			c0.2-5.1,3.8-4.4,7.3-4.3c3.6,0.1,7.1,0,11,0c0.1,2.2,0.3,3.7,0.3,5.3c0.1,18.8,0.2,37.5,0.3,56.4c0,3.4-0.2,6.8-0.7,10.2
			c-2.4,16.1-15.1,27.3-32.3,28.6C553.7,155.6,538.5,146,533.8,131.3z M550.6,87.1c0.1,10.2,6.9,17.9,16,17.9
			c10.1,0,17-7.3,17.1-17.8c0.1-10.2-7.1-17.9-16.6-17.9C557.5,69.3,550.6,76.8,550.6,87.1z"/>
		
			<linearGradient id="SVGID_2_" gradientUnits="userSpaceOnUse" x1="374.5412" y1="153.9324" x2="374.5412" y2="50.77" gradientTransform="matrix(1 0 0 -1 0 175.8898)">
			<stop  offset="0" style="stop-color:#FF7500"/>
			<stop  offset="1" style="stop-color:#F8E509"/>
		</linearGradient>
		<path class="st1" d="M391.7,118.2c-4.7,2.2-9.4,5.2-14.4,6.3c-16.9,3.5-33.5-8-37.1-25.8c-3-14.6-0.9-28.3,11.2-38.6
			c11.2-9.5,24.9-9.8,37.5-1.9c0.5,0.3,1,0.5,2.3,1c0-7.8,0-14.9,0-22.2c0-3.9-0.2-7.8,0.1-11.7c0.1-1.2,1.5-3.1,2.4-3.2
			c5-0.3,10-0.1,15.4-0.1c0.1,2,0.2,3.6,0.2,5.1c0.1,30.1,0.1,60.3,0.5,90.4c0,4.6-1.4,6.1-5.8,5.6c-1.6-0.2-3.2-0.2-4.9-0.1
			C395.2,123.3,391.2,123.3,391.7,118.2z M391.7,88.7c0-11.7-6.9-19.6-17.1-19.6c-9.6,0-17.3,8.8-17.1,19.8
			c0.1,10.9,7.8,19.1,17.5,19C385.1,107.8,391.8,100.2,391.7,88.7z"/>
		
			<linearGradient id="SVGID_3_" gradientUnits="userSpaceOnUse" x1="74.1895" y1="123.8956" x2="74.1895" y2="26.4925" gradientTransform="matrix(1 0 0 -1 0 175.8898)">
			<stop  offset="0" style="stop-color:#FF7500"/>
			<stop  offset="1" style="stop-color:#F8E509"/>
		</linearGradient>
		<path class="st2" d="M91.1,117.6c-11.1,8.5-22.2,9.1-33.7,3.6c-13.2-6.4-20.1-21.1-18.2-37.2c1.7-14.6,8.8-25.5,23-30.2
			c9.7-3.2,19.3-2.3,27.2,5.3c0.5,0.5,1,0.7,2.1,1.3c-0.7-6.5,3.2-6.3,7.4-6c3.4,0.2,6.7,0,10.4,0c0,31.8,0,63.2,0,94.9
			c-6.1,0-11.8,0-18.2,0C91.1,139,91.1,128.7,91.1,117.6z M91.5,88.8c0-11.7-6.8-19.6-17.1-19.5c-9.5,0-17.1,8.7-17.1,19.3
			c0,10.9,7.4,19.3,17,19.5C84.4,108.3,91.5,100.4,91.5,88.8z"/>
		
			<linearGradient id="SVGID_4_" gradientUnits="userSpaceOnUse" x1="296.7453" y1="123.6666" x2="296.7453" y2="50.8201" gradientTransform="matrix(1 0 0 -1 0 175.8898)">
			<stop  offset="0" style="stop-color:#FF7500"/>
			<stop  offset="1" style="stop-color:#F8E509"/>
		</linearGradient>
		<path class="st3" d="M327.8,123c-5.8,0-11.2,0-16.9,0c-0.5-2.1-0.9-4.1-1.5-6.5c-1.3,1-2.3,1.9-3.2,2.7
			c-8.5,7.4-23.2,8.1-32.3,1.5c-11.9-8.6-10.8-27.3,2.5-33.3c6-2.8,13.1-3.5,19.7-5.1c2.2-0.5,4.6-0.3,6.7-1.3
			c1.9-0.8,4.7-2.3,4.9-3.7c0.2-2.2-0.8-5.2-2.4-6.8c-6-5.8-17-3.8-20.4,3.6c-1.7,3.7-3.6,4.2-7.1,3.1c-3.2-1-6.6-1.5-10.9-2.4
			c1.2-3,1.9-5.8,3.2-8.1c10.8-17.5,39.4-19.5,52.4-3.6c2.5,3.1,4.7,7.5,4.9,11.3C328.1,90.5,327.8,106.4,327.8,123z M310,94.9
			c-7.3,0.7-14,1-20.5,2.2c-2,0.3-4.7,3-4.9,4.9c-0.2,2.4,1.2,6.3,3,7.4c5.2,3.2,11,2.1,16.1-0.9C308.5,105.5,310.3,101.1,310,94.9z
			"/>
		
			<linearGradient id="SVGID_5_" gradientUnits="userSpaceOnUse" x1="488.0421" y1="123.4091" x2="488.0421" y2="52.5798" gradientTransform="matrix(1 0 0 -1 0 175.8898)">
			<stop  offset="0" style="stop-color:#FF7500"/>
			<stop  offset="1" style="stop-color:#F8E509"/>
		</linearGradient>
		<path class="st4" d="M501.8,123.1c0-12.2,0-23.2,0-34.2c0-3-0.2-6.1-0.6-9.1c-0.6-5.1-3.2-8.7-8.6-10c-5.6-1.4-11-0.6-13.8,4.4
			c-2.4,4.3-4.2,9.5-4.5,14.5c-0.7,9.5-0.5,19.1-0.1,28.7c0.2,4.9-1.5,6.3-6.1,5.8c-4.1-0.3-8.1-0.1-12.5-0.1c0-22.9,0-45.4,0-68.1
			c5.7,0,11.2,0,17.1,0c0.1,2.5,0.3,4.9,0.5,8.1c1.5-1.4,2.5-2.2,3.6-3.1c8.5-8.3,22.2-10,32.4-3.8c7.1,4.3,10.3,10.9,10.5,18.6
			c0.5,14.9,0.6,29.8,0.7,44.7c0,1.2-1.4,3.4-2.2,3.4C512.9,123.2,507.6,123.1,501.8,123.1z"/>
		
			<linearGradient id="SVGID_6_" gradientUnits="userSpaceOnUse" x1="178.2683" y1="141.771" x2="178.2683" y2="51.4238" gradientTransform="matrix(1 0 0 -1 0 175.8898)">
			<stop  offset="0" style="stop-color:#FF7500"/>
			<stop  offset="1" style="stop-color:#F8E509"/>
		</linearGradient>
		<path class="st5" d="M203,120.6c-9,4.9-17.8,5.1-26.4,0.8c-7.9-3.9-11.1-11.1-11.2-19.6c-0.1-8.7-0.2-17.5,0-26.2
			c0.1-3.9-1-5.7-5.2-5.2c-2.1,0.2-4.2,0-6.6,0c0-5.4,0-10.4,0-15.6c1.2-0.1,2.1-0.3,3-0.3c9.5-0.2,9.5-0.2,9.5-10
			c0-10.5,0-10.5,10.4-10.5c2.1,0,4.2,0,6.9,0c0,6.8,0,13.4,0,20.4c5.7,0,10.7,0,16.4,0c0,4.9,0.2,9.4-0.1,13.8
			c-0.1,0.8-2.2,2.1-3.5,2.1c-4.1,0.2-8.1,0.1-12.3,0.1c0,10.3-0.3,20,0.1,29.9c0.2,4.7,3.9,6.8,8.7,6.4c1.6-0.1,3.1-0.6,5.1-0.9
			C199.7,110.7,201.4,115.6,203,120.6z"/>
		
			<linearGradient id="SVGID_7_" gradientUnits="userSpaceOnUse" x1="238.8016" y1="122.9348" x2="238.8016" y2="53.2136" gradientTransform="matrix(1 0 0 -1 0 175.8898)">
			<stop  offset="0" style="stop-color:#FF7500"/>
			<stop  offset="1" style="stop-color:#F8E509"/>
		</linearGradient>
		<path class="st6" d="M232.4,55c0.2,3,0.3,5.3,0.6,8.7c6.6-9.4,15.1-11.9,25.1-10.3c4.1,0.7,5.8,2.2,3.9,6.5
			c-1.5,3.6-2.4,7.3-3.6,11.2c-1.4-0.2-2.4-0.3-3.5-0.6c-11.8-2.4-20.5,3.6-21.4,15.6c-0.8,10-0.6,20-0.8,30.1c0,2,0,3.8,0,6.4
			c-5.6,0-10.7,0.1-15.7-0.1c-0.8,0-2.1-2-2.1-3c-0.1-20.4-0.1-40.8,0-61.1c0-1.2,1.9-3.1,2.9-3.1C222.3,54.9,227.1,55,232.4,55z"/>
		
			<linearGradient id="SVGID_8_" gradientUnits="userSpaceOnUse" x1="16.7459" y1="122.0518" x2="16.7459" y2="52.7807" gradientTransform="matrix(1 0 0 -1 0 175.8898)">
			<stop  offset="0" style="stop-color:#FF7500"/>
			<stop  offset="1" style="stop-color:#F8E509"/>
		</linearGradient>
		<path class="st7" d="M26.3,123.1c-6.6,0-12.5,0-19,0c-0.1-1.4-0.3-2.7-0.3-4.1c0-20,0.1-40.2-0.1-60.2c0-3.6,1-5,4.7-4.6
			c4.6,0.3,11-1.3,13.5,1c2.4,2.3,1.2,8.8,1.2,13.4c0.1,16.3,0,32.8,0,49.1C26.3,119.4,26.3,121.1,26.3,123.1z"/>
		
			<linearGradient id="SVGID_9_" gradientUnits="userSpaceOnUse" x1="433.0458" y1="121.7274" x2="433.0458" y2="52.7794" gradientTransform="matrix(1 0 0 -1 0 175.8898)">
			<stop  offset="0" style="stop-color:#FF7500"/>
			<stop  offset="1" style="stop-color:#F8E509"/>
		</linearGradient>
		<path class="st8" d="M423.6,54.2c5.8,0,11.2-0.2,16.7,0.2c0.9,0.1,2.2,2.8,2.2,4.2c0.1,17.7,0.1,35.3,0.1,53c0,3.7,0,7.4,0,11.5
			c-6.5,0-12.6,0-19,0C423.6,100.2,423.6,77.5,423.6,54.2z"/>
		
			<linearGradient id="SVGID_10_" gradientUnits="userSpaceOnUse" x1="16.4596" y1="155.4256" x2="16.4596" y2="133.0997" gradientTransform="matrix(1 0 0 -1 0 175.8898)">
			<stop  offset="0" style="stop-color:#FF7500"/>
			<stop  offset="1" style="stop-color:#F8E509"/>
		</linearGradient>
		<path class="st9" d="M16.3,42.8C9.9,42.6,4.8,37.4,5,31.3c0.2-6,5.3-10.9,11.6-10.8c6.3,0,11.3,5,11.3,11
			C27.9,37.8,22.7,42.9,16.3,42.8z"/>
		
			<linearGradient id="SVGID_11_" gradientUnits="userSpaceOnUse" x1="432.5836" y1="155.426" x2="432.5836" y2="133.0763" gradientTransform="matrix(1 0 0 -1 0 175.8898)">
			<stop  offset="0" style="stop-color:#FF7500"/>
			<stop  offset="1" style="stop-color:#F8E509"/>
		</linearGradient>
		<path class="st10" d="M432.8,42.8c-6.5,0.1-11.7-5-11.7-11.2c0-6,5.1-11,11.2-11.1c6.4-0.1,11.7,5,11.7,11.2
			C444.2,37.8,439.1,42.8,432.8,42.8z"/>
	</g>
	<g id="Слой_3">
	</g>
</g>
</svg>
